<?xml version="1.0" standalone="no"?>
<!DOCTYPE svg PUBLIC "-//W3C//DTD SVG 20010904//EN"
 "http://www.w3.org/TR/2001/REC-SVG-20010904/DTD/svg10.dtd">
<svg version="1.0" xmlns="http://www.w3.org/2000/svg"
 width="500.000000pt" height="500.000000pt" viewBox="0 0 500.000000 500.000000"
 preserveAspectRatio="xMidYMid meet">
<metadata>
Created by potrace 1.11, written by Peter Selinger 2001-2013
</metadata>
<g transform="translate(0.000000,500.000000) scale(0.100000,-0.100000)"
fill="#000000" stroke="none">
<path d="M417 4682 c7 -43 16 -120 20 -172 10 -124 10 -3675 0 -3845 -12 -201
-26 -383 -33 -418 -2 -10 3 -17 14 -18 23 0 485 0 547 0 l50 1 0 255 c0 164 3
256 10 258 5 2 672 3 1480 3 l1470 -1 0 -228 -1 -227 76 0 c169 -1 477 -2 503
-1 l29 1 -6 88 c-8 108 -15 226 -21 362 -7 141 -6 3760 0 3830 3 30 10 82 15
115 12 76 12 75 -2 70 -69 -23 -520 -30 -2043 -30 -1540 0 -2039 7 -2111 30
-7 2 -7 -20 3 -73z m3544 -444 c12 -5 14 -251 14 -1509 l-1 -1504 -1479 0
-1480 0 0 1505 0 1505 35 5 c47 7 2894 4 2911 -2z"/>
<path d="M1745 3935 c-22 -8 -106 -35 -187 -60 l-148 -46 0 -175 0 -174 -138
0 -138 0 1 -152 0 -153 134 -2 c74 -2 135 -4 137 -6 2 -2 4 -257 4 -568 1
-585 6 -659 46 -773 58 -166 180 -271 354 -304 70 -14 283 -6 363 12 l79 18
-7 157 c-4 86 -8 157 -9 158 -1 1 -19 -2 -41 -7 -50 -12 -170 -14 -210 -4 -71
17 -117 65 -147 154 -21 63 -22 79 -24 613 l-3 547 102 1 c56 0 159 0 230 -1
l127 0 1 27 c0 16 1 84 2 153 l1 125 -231 3 -231 2 0 223 c0 122 -1 228 -1
235 -1 15 -15 14 -66 -3z"/>
<path d="M3080 3513 c-66 -12 -150 -37 -199 -59 -200 -92 -330 -278 -336 -481
-3 -100 8 -155 50 -239 65 -133 190 -233 424 -339 226 -102 296 -159 321 -265
23 -96 -11 -198 -84 -254 -81 -62 -252 -77 -410 -36 -66 17 -111 34 -252 96
-6 3 -20 -27 -34 -73 -12 -43 -31 -104 -41 -137 -30 -94 -36 -87 106 -147 37
-16 166 -48 223 -56 65 -9 284 -8 356 2 26 4 83 18 125 31 270 88 415 286 412
559 -1 39 -3 79 -5 90 -24 115 -68 196 -152 280 -78 78 -154 125 -318 200
-169 77 -232 114 -275 160 -80 87 -77 209 6 299 44 48 106 69 208 73 105 3
195 -17 304 -67 39 -18 73 -31 74 -29 4 5 87 275 87 283 0 9 -88 51 -146 70
-110 36 -347 57 -444 39z"/>
</g>
</svg>
